@startuml
hide circle
skinparam classAttributeIconSize 0
title A-GRA ASK 5.0a - Family: IFF_*

class "IFF_Activity" <<element>> {
  +type: IFF_ActivityMT
}
class "IFF_Capability" <<element>> {
  +type: IFF_CapabilityMT
}
class "IFF_CapabilityStatus" <<element>> {
  +type: IFF_CapabilityStatusMT
}
class "IFF_Command" <<element>> {
  +type: IFF_CommandMT
}
class "IFF_CommandStatus" <<element>> {
  +type: IFF_CommandStatusMT
}
class "IFF_ConsentRequest" <<element>> {
  +type: IFF_ConsentRequestMT
}
class "IFF_ConsentRequestStatus" <<element>> {
  +type: IFF_ConsentRequestStatusMT
}
class "IFF_SettingsCommand" <<element>> {
  +type: IFF_SettingsCommandMT
}
class "IFF_SettingsCommandStatus" <<element>> {
  +type: IFF_SettingsCommandStatusMT
}

class "ActivityBaseType" <<complexType>> {
  +ActivityID: ActivityID_Type
  +CapabilityID: CapabilityID_Type
  +Interactive: boolean
  +ActivityState: ActivityStateEnum
  +Basis: ActivityBasisEnum
  +ActivityRank: ComparableRankingType
  +ActivityReason: CannotComplyType
  +Source: ActivitySourceType
  +EstimatedStartTime: DateTimeType
  +EstimatedCompletionTime: DateTimeType
  +EstimatedPercentComplete: PercentType
}
class "ActivityID_Type" <<complexType>> {
  --
}
class "ActivitySourceType" <<complexType>> {
  --
}
class "AirTargetVolumeCommandType" <<complexType>> {
  --
}
class "AreaChoiceType" <<complexType>> {
  --
}
class "AtomicEnergyMarkingsChoiceType" <<complexType>> {
  --
}
class "AvailabilityInfoType" <<complexType>> {
  +Availability: CapabilityAvailabilityEnum
  +AvailabilityReason: CannotComplyType
  +NextAvailableWindow: DateTimeType
}
class "CannotComplyType" <<complexType>> {
  +Reason: CannotComplyEnum
  +Description: VisibleString1024Type
  +AssociatedID: ID_Type
}
class "CapabilityBaseType" <<complexType>> {
  +AvailableMDF: MDF_Type
}
class "CapabilityCommandStatusBaseType" <<complexType>> {
  +Activity: ResultingActivityType
}
class "CapabilityConsentRequestStatusBaseType" <<complexType>> {
  +ApprovalState: ApprovalStatusEnum
  +ApprovalRejectedReason: CannotComplyType
}
class "CapabilityDeclarationBaseType" <<complexType>> {
  +CapabilityID: CapabilityID_Type
  +DomainPairing: EnvironmentPairingEnum
  +ProductOutput: ProductOutputType
  +PackageOperation: PackageOperationEnum
}
class "CapabilityID_Type" <<complexType>> {
  --
}
class "CapabilityPrecedenceType" <<complexType>> {
  +CapabilityID: CapabilityID_Type
  +CapabilityPrecedence: unsignedInt
}
class "CapabilitySettingsCommandBaseType" <<complexType>> {
  +SubsystemID: SubsystemID_Type
  +ActivateMDF: MDF_CommandType
  +CapabilityPrecedence: CapabilityPrecedenceType
  +CapabilityState: CapabilityStateType
  +RepresentationKey: ForeignKeyType
}
class "CapabilitySettingsCommandStatusBaseType" <<complexType>> {
  --
}
class "CapabilityStateType" <<complexType>> {
  +CapabilityID: CapabilityID_Type
  +CapabilityCommandState: CapabilityCommandStateEnum
}
class "CapabilityStatusBaseType" <<complexType>> {
  +MDF_Status: MDF_StatusType
}
class "CapabilityStatusType" <<complexType>> {
  +CapabilityID: CapabilityID_Type
  +AvailabilityInfo: AvailabilityInfoType
  +CapabilityPrecedence: unsignedInt
  +RepresentationKey: ForeignKeyType
}
class "CommandBaseType" <<complexType>> {
  +CommandID: CommandID_Type
  +CommandState: CommandStateEnum
}
class "CommandID_Type" <<complexType>> {
  --
}
class "CommandStatusBaseType" <<complexType>> {
  +CommandID: CommandID_Type
  +CommandProcessingState: CommandProcessingStateEnum
  +CommandProcessingStateReason: CannotComplyType
}
class "CommandableCapabilityDeclarationType" <<complexType>> {
  +AcceptedInterface: CapabilityControlInterfacesEnum
  +CommsRequired: boolean
}
class "ComparableRankingType" <<complexType>> {
  +Priority: unsignedShort
  +PrecedenceWithinPriority: unsignedShort
}
class "ElectronicProtectionOptionsDefaultType" <<complexType>> {
  +CapabilityID: CapabilityID_Type
  +ElectronicProtectionOptions: ElectronicProtectionOptionsEnableType
}
class "ElectronicProtectionOptionsEnableType" <<complexType>> {
  +ElectronicProtectionOptionsKey: ForeignKeyType
  +ElectronicProtectionOptionStatus: EP_CommandedStateEnum
}
class "ElectronicProtectionOptionsSupportedType" <<complexType>> {
  +ElectronicProtectionOptionState: EP_StateEnum
  +Reference: ForeignKeyType
}
class "EmconSettingType" <<complexType>> {
  --
}
class "FGI_SourceOpenChoiceType" <<complexType>> {
  --
}
class "FileFormatType" <<complexType>> {
  --
}
class "ForeignKeyType" <<complexType>> {
  +Key: VisibleString256Type
  +SystemName: VisibleString256Type
}
class "HeaderType" <<complexType>> {
  +SystemID: SystemID_Type
  +Timestamp: DateTimeType
  +SchemaVersion: UCI_SchemaVersionStringType
  +Mode: MessageModeEnum
  +ServiceID: ServiceID_Type
  +MissionID: MissionID_Type
}
class "ID_Type" <<complexType>> {
  +UUID: UniversallyUniqueIdentifierType
  +DescriptiveLabel: VisibleString256Type
}
class "IFF_ActiveModesType" <<complexType>> {
  --
}
class "IFF_ActivityMDT" <<complexType>> {
  +SubsystemID: SubsystemID_Type
  +Activity: IFF_ActivityType
}
class "IFF_ActivityMT" <<complexType>> {
  +ObjectState: ObjectStateEnum
  +MessageData: IFF_ActivityMDT
}
class "IFF_ActivityType" <<complexType>> {
  +SubCapability: IFF_SubmodesType
}
class "IFF_CapabilityMDT" <<complexType>> {
  +Capability: IFF_CapabilityType
}
class "IFF_CapabilityMT" <<complexType>> {
  +ObjectState: ObjectStateEnum
  +MessageData: IFF_CapabilityMDT
}
class "IFF_CapabilityOptionsType" <<complexType>> {
  +InterruptOtherActivities: boolean
  +CollectionPolicy: boolean
  +ConcurrentOperationSupported: boolean
  +ElectronicProtectionOptionsSupported: ElectronicProtectionOptionsSupportedType
}
class "IFF_CapabilityStatusMDT" <<complexType>> {
  +CapabilityStatus: CapabilityStatusType
  +RF_Profile: RF_ProfileType
  +DefaultEmcon: EmconSettingType
  +CurrentMessageOutput: IFF_MessageOutputsEnum
}
class "IFF_CapabilityStatusMT" <<complexType>> {
  +MessageData: IFF_CapabilityStatusMDT
}
class "IFF_CapabilityType" <<complexType>> {
  +CapabilityType: CapabilityInitiationEnum
  +SubCapabilityType: IFF_SubCapabilityEnum
  +IFF_ModesAvailable: IFF_ModesAvailableType
  +CapabilityOptions: IFF_CapabilityOptionsType
  +MessageOutput: IFF_MessageOutputsEnum
}
class "IFF_CommandMDT" <<complexType>> {
  +Command: IFF_CommandType
}
class "IFF_CommandMT" <<complexType>> {
  +MessageData: IFF_CommandMDT
}
class "IFF_CommandStatusMDT" <<complexType>> {
  --
}
class "IFF_CommandStatusMT" <<complexType>> {
  +MessageData: IFF_CommandStatusMDT
}
class "IFF_CommandType" <<complexType>> {
  --
}
class "IFF_ConsentRequestMDT" <<complexType>> {
  +SubsystemID: SubsystemID_Type
  +ConsentRequest: IFF_ConsentRequestType
}
class "IFF_ConsentRequestMT" <<complexType>> {
  +MessageData: IFF_ConsentRequestMDT
}
class "IFF_ConsentRequestStatusMDT" <<complexType>> {
  --
}
class "IFF_ConsentRequestStatusMT" <<complexType>> {
  +MessageData: IFF_ConsentRequestStatusMDT
}
class "IFF_ConsentRequestType" <<complexType>> {
  +ActivityID: ActivityID_Type
  +RF_Override: boolean
}
class "IFF_ModesAvailableType" <<complexType>> {
  +IFF_Modes: IFF_ModesEnum
  +Mode5_Format: IFF_Mode5_FormatType
  +ModeS_RegistersSupported: IFF_ModeS_SupportEnum
  +ADS_B_Type: IFF_ADS_B_Type
  +ADS_B_SubType: IFF_ADS_B_SubtypeType
}
class "IFF_SettingsCommandMDT" <<complexType>> {
  +IFF_InterrogatorReceiverModesAvailable: IFF_ModesAvailableType
  +ElectronicProtectionOptions: ElectronicProtectionOptionsDefaultType
  +EmissionBalanceState: EmissionBalanceEnum
  +MessageOutput: IFF_MessageOutputsEnum
  +UnassignAll: boolean
  +DefaultEmcon: EmconSettingType
}
class "IFF_SettingsCommandMT" <<complexType>> {
  +MessageData: IFF_SettingsCommandMDT
}
class "IFF_SettingsCommandStatusMDT" <<complexType>> {
  --
}
class "IFF_SettingsCommandStatusMT" <<complexType>> {
  +MessageData: IFF_SettingsCommandStatusMDT
}
class "IFF_SubmodesType" <<complexType>> {
  +IFF_ActiveModes: IFF_ActiveModesType
  +TargetVolume: AirTargetVolumeCommandType
  +Repetition: RepetitionType
}
class "MDF_CommandSubCategoryType" <<complexType>> {
  +SubCategoryID: MDF_SubCategoryID_Type
  +FileID: MDF_SubCategoryFileID_Type
}
class "MDF_CommandType" <<complexType>> {
  +MDF_ID: MDF_ID_Type
  +SubCategory: MDF_CommandSubCategoryType
}
class "MDF_FileType" <<complexType>> {
  +FileID: MDF_SubCategoryFileID_Type
  +FileStatus: MDF_StatusEnum
}
class "MDF_ID_Type" <<complexType>> {
  --
}
class "MDF_StatusType" <<complexType>> {
  +CurrentMDF: MDF_CommandType
  +CommandedMDF: MDF_CommandType
  +FailedMDF: MDF_CommandType
}
class "MDF_SubCategoryFileID_Type" <<complexType>> {
  --
}
class "MDF_SubCategoryID_Type" <<complexType>> {
  --
}
class "MDF_SubCategoryType" <<complexType>> {
  +SubCategoryID: MDF_SubCategoryID_Type
  +SubCategoryStatus: MDF_StatusEnum
  +File: MDF_FileType
}
class "MDF_Type" <<complexType>> {
  +MDF_ID: MDF_ID_Type
  +MDF_Status: MDF_StatusEnum
  +SubCategory: MDF_SubCategoryType
}
class "MessageType" <<complexType>> {
  +SecurityInformation: SecurityInformationType
  +MessageHeader: HeaderType
}
class "MissionID_Type" <<complexType>> {
  --
}
class "NonIC_MarkingsChoiceType" <<complexType>> {
  --
}
class "OwnerProducerChoiceType" <<complexType>> {
  --
}
class "ProductOutputType" <<complexType>> {
  +ProductType: ProductTypeEnum
  +ProcessingType: ProcessingTypeEnum
  +ProductFormat: FileFormatType
}
class "RF_ProfileID_Type" <<complexType>> {
  --
}
class "RF_ProfileType" <<complexType>> {
  +RF_ProfileID: RF_ProfileID_Type
  +TimedZone: TimedZoneType
  +Expires: DateTimeType
}
class "ReleasableToChoiceType" <<complexType>> {
  --
}
class "RepetitionType" <<complexType>> {
  --
}
class "RequestBaseType" <<complexType>> {
  +RequestID: RequestID_Type
  +RequestState: RequestStateEnum
}
class "RequestID_Type" <<complexType>> {
  --
}
class "RequestStatusBaseType" <<complexType>> {
  +RequestID: RequestID_Type
  +RequestProcessingState: RequestProcessingStateEnum
  +RequestProcessingStateReason: CannotComplyType
}
class "ResultingActivityType" <<complexType>> {
  +ActivityID: ActivityID_Type
  +NewActivity: boolean
}
class "SCI_ControlsChoiceType" <<complexType>> {
  --
}
class "ScheduleType" <<complexType>> {
  --
}
class "SecurityInformationType" <<complexType>> {
  +Classification: ClassificationEnum
  +OwnerProducer: OwnerProducerChoiceType
  +Joint: boolean
  +SCI_Controls: SCI_ControlsChoiceType
  +SAR_Identifier: SAR_IdentifierType
  +AtomicEnergyMarkings: AtomicEnergyMarkingsChoiceType
  +DisseminationControls: DisseminationControlsEnum
  +DisplayOnlyTo: ReleasableToChoiceType
  +FGI_SourceOpen: FGI_SourceOpenChoiceType
  +ReleasableTo: ReleasableToChoiceType
  +NonIC_Markings: NonIC_MarkingsChoiceType
  +ClassifiedBy: WhitespaceVisibleString1024Type
  +CompilationReason: WhitespaceVisibleString1024Type
  +DerivativelyClassifiedBy: WhitespaceVisibleString1024Type
  +ClassificationReason: WhitespaceVisibleString4096Type
  +NonUS_Controls: NonUS_ControlsEnum
  +DerivedFrom: WhitespaceVisibleString1024Type
  +DeclassDate: dateTime
  +DeclassEvent: WhitespaceVisibleString1024Type
  +DeclassException: DeclassExceptionEnum
}
class "ServiceID_Type" <<complexType>> {
  +ServiceVersion: VisibleString256Type
}
class "SubsystemID_Type" <<complexType>> {
  --
}
class "SystemID_Type" <<complexType>> {
  --
}
class "TimedZoneType" <<complexType>> {
  +Schedule: ScheduleType
}
class "VersionedID_Type" <<complexType>> {
  +Version: unsignedInt
}
class "ZoneType" <<complexType>> {
  +Shape: AreaChoiceType
  +MinAltitude: AltitudeType
  +MaxAltitude: AltitudeType
  +AltitudeReference: AltitudeReferenceEnum
}

"IFF_Activity" --> "IFF_ActivityMT" : payload
"IFF_Capability" --> "IFF_CapabilityMT" : payload
"IFF_CapabilityStatus" --> "IFF_CapabilityStatusMT" : payload
"IFF_Command" --> "IFF_CommandMT" : payload
"IFF_CommandStatus" --> "IFF_CommandStatusMT" : payload
"IFF_ConsentRequest" --> "IFF_ConsentRequestMT" : payload
"IFF_ConsentRequestStatus" --> "IFF_ConsentRequestStatusMT" : payload
"IFF_SettingsCommand" --> "IFF_SettingsCommandMT" : payload
"IFF_SettingsCommandStatus" --> "IFF_SettingsCommandStatusMT" : payload
"ActivityBaseType" --> "ActivityID_Type" : ActivityID
"ActivityBaseType" --> "CapabilityID_Type" : CapabilityID
"ActivityBaseType" --> "ComparableRankingType" : ActivityRank
"ActivityBaseType" --> "CannotComplyType" : ActivityReason
"ActivityBaseType" --> "ActivitySourceType" : Source
"ID_Type" <|-- "ActivityID_Type"
"AvailabilityInfoType" --> "CannotComplyType" : AvailabilityReason
"CannotComplyType" --> "ID_Type" : AssociatedID
"CapabilityBaseType" --> "MDF_Type" : AvailableMDF
"CommandStatusBaseType" <|-- "CapabilityCommandStatusBaseType"
"CapabilityCommandStatusBaseType" --> "ResultingActivityType" : Activity
"RequestStatusBaseType" <|-- "CapabilityConsentRequestStatusBaseType"
"CapabilityConsentRequestStatusBaseType" --> "CannotComplyType" : ApprovalRejectedReason
"CapabilityDeclarationBaseType" --> "CapabilityID_Type" : CapabilityID
"CapabilityDeclarationBaseType" --> "ProductOutputType" : ProductOutput
"ID_Type" <|-- "CapabilityID_Type"
"CapabilityPrecedenceType" --> "CapabilityID_Type" : CapabilityID
"CommandBaseType" <|-- "CapabilitySettingsCommandBaseType"
"CapabilitySettingsCommandBaseType" --> "SubsystemID_Type" : SubsystemID
"CapabilitySettingsCommandBaseType" --> "MDF_CommandType" : ActivateMDF
"CapabilitySettingsCommandBaseType" --> "CapabilityPrecedenceType" : CapabilityPrecedence
"CapabilitySettingsCommandBaseType" --> "CapabilityStateType" : CapabilityState
"CapabilitySettingsCommandBaseType" --> "ForeignKeyType" : RepresentationKey
"CommandStatusBaseType" <|-- "CapabilitySettingsCommandStatusBaseType"
"CapabilityStateType" --> "CapabilityID_Type" : CapabilityID
"CapabilityStatusBaseType" --> "MDF_StatusType" : MDF_Status
"CapabilityStatusType" --> "CapabilityID_Type" : CapabilityID
"CapabilityStatusType" --> "AvailabilityInfoType" : AvailabilityInfo
"CapabilityStatusType" --> "ForeignKeyType" : RepresentationKey
"CommandBaseType" --> "CommandID_Type" : CommandID
"ID_Type" <|-- "CommandID_Type"
"CommandStatusBaseType" --> "CommandID_Type" : CommandID
"CommandStatusBaseType" --> "CannotComplyType" : CommandProcessingStateReason
"CapabilityDeclarationBaseType" <|-- "CommandableCapabilityDeclarationType"
"ElectronicProtectionOptionsDefaultType" --> "CapabilityID_Type" : CapabilityID
"ElectronicProtectionOptionsDefaultType" --> "ElectronicProtectionOptionsEnableType" : ElectronicProtectionOptions
"ElectronicProtectionOptionsEnableType" --> "ForeignKeyType" : ElectronicProtectionOptionsKey
"ElectronicProtectionOptionsSupportedType" --> "ForeignKeyType" : Reference
"HeaderType" --> "SystemID_Type" : SystemID
"HeaderType" --> "ServiceID_Type" : ServiceID
"HeaderType" --> "MissionID_Type" : MissionID
"IFF_ActivityMDT" --> "SubsystemID_Type" : SubsystemID
"IFF_ActivityMDT" --> "IFF_ActivityType" : Activity
"MessageType" <|-- "IFF_ActivityMT"
"IFF_ActivityMT" --> "IFF_ActivityMDT" : MessageData
"ActivityBaseType" <|-- "IFF_ActivityType"
"IFF_ActivityType" --> "IFF_SubmodesType" : SubCapability
"CapabilityBaseType" <|-- "IFF_CapabilityMDT"
"IFF_CapabilityMDT" --> "IFF_CapabilityType" : Capability
"MessageType" <|-- "IFF_CapabilityMT"
"IFF_CapabilityMT" --> "IFF_CapabilityMDT" : MessageData
"IFF_CapabilityOptionsType" --> "ElectronicProtectionOptionsSupportedType" : ElectronicProtectionOptionsSupported
"CapabilityStatusBaseType" <|-- "IFF_CapabilityStatusMDT"
"IFF_CapabilityStatusMDT" --> "CapabilityStatusType" : CapabilityStatus
"IFF_CapabilityStatusMDT" --> "RF_ProfileType" : RF_Profile
"IFF_CapabilityStatusMDT" --> "EmconSettingType" : DefaultEmcon
"MessageType" <|-- "IFF_CapabilityStatusMT"
"IFF_CapabilityStatusMT" --> "IFF_CapabilityStatusMDT" : MessageData
"CommandableCapabilityDeclarationType" <|-- "IFF_CapabilityType"
"IFF_CapabilityType" --> "IFF_ModesAvailableType" : IFF_ModesAvailable
"IFF_CapabilityType" --> "IFF_CapabilityOptionsType" : CapabilityOptions
"IFF_CommandMDT" --> "IFF_CommandType" : Command
"MessageType" <|-- "IFF_CommandMT"
"IFF_CommandMT" --> "IFF_CommandMDT" : MessageData
"CapabilityCommandStatusBaseType" <|-- "IFF_CommandStatusMDT"
"MessageType" <|-- "IFF_CommandStatusMT"
"IFF_CommandStatusMT" --> "IFF_CommandStatusMDT" : MessageData
"IFF_ConsentRequestMDT" --> "SubsystemID_Type" : SubsystemID
"IFF_ConsentRequestMDT" --> "IFF_ConsentRequestType" : ConsentRequest
"MessageType" <|-- "IFF_ConsentRequestMT"
"IFF_ConsentRequestMT" --> "IFF_ConsentRequestMDT" : MessageData
"CapabilityConsentRequestStatusBaseType" <|-- "IFF_ConsentRequestStatusMDT"
"MessageType" <|-- "IFF_ConsentRequestStatusMT"
"IFF_ConsentRequestStatusMT" --> "IFF_ConsentRequestStatusMDT" : MessageData
"RequestBaseType" <|-- "IFF_ConsentRequestType"
"IFF_ConsentRequestType" --> "ActivityID_Type" : ActivityID
"CapabilitySettingsCommandBaseType" <|-- "IFF_SettingsCommandMDT"
"IFF_SettingsCommandMDT" --> "IFF_ModesAvailableType" : IFF_InterrogatorReceiverModesAvailable
"IFF_SettingsCommandMDT" --> "ElectronicProtectionOptionsDefaultType" : ElectronicProtectionOptions
"IFF_SettingsCommandMDT" --> "EmconSettingType" : DefaultEmcon
"MessageType" <|-- "IFF_SettingsCommandMT"
"IFF_SettingsCommandMT" --> "IFF_SettingsCommandMDT" : MessageData
"CapabilitySettingsCommandStatusBaseType" <|-- "IFF_SettingsCommandStatusMDT"
"MessageType" <|-- "IFF_SettingsCommandStatusMT"
"IFF_SettingsCommandStatusMT" --> "IFF_SettingsCommandStatusMDT" : MessageData
"IFF_SubmodesType" --> "IFF_ActiveModesType" : IFF_ActiveModes
"IFF_SubmodesType" --> "AirTargetVolumeCommandType" : TargetVolume
"IFF_SubmodesType" --> "RepetitionType" : Repetition
"MDF_CommandSubCategoryType" --> "MDF_SubCategoryID_Type" : SubCategoryID
"MDF_CommandSubCategoryType" --> "MDF_SubCategoryFileID_Type" : FileID
"MDF_CommandType" --> "MDF_ID_Type" : MDF_ID
"MDF_CommandType" --> "MDF_CommandSubCategoryType" : SubCategory
"MDF_FileType" --> "MDF_SubCategoryFileID_Type" : FileID
"ID_Type" <|-- "MDF_ID_Type"
"MDF_StatusType" --> "MDF_CommandType" : CurrentMDF
"MDF_StatusType" --> "MDF_CommandType" : CommandedMDF
"MDF_StatusType" --> "MDF_CommandType" : FailedMDF
"ID_Type" <|-- "MDF_SubCategoryFileID_Type"
"ID_Type" <|-- "MDF_SubCategoryID_Type"
"MDF_SubCategoryType" --> "MDF_SubCategoryID_Type" : SubCategoryID
"MDF_SubCategoryType" --> "MDF_FileType" : File
"MDF_Type" --> "MDF_ID_Type" : MDF_ID
"MDF_Type" --> "MDF_SubCategoryType" : SubCategory
"MessageType" --> "SecurityInformationType" : SecurityInformation
"MessageType" --> "HeaderType" : MessageHeader
"VersionedID_Type" <|-- "MissionID_Type"
"ProductOutputType" --> "FileFormatType" : ProductFormat
"ID_Type" <|-- "RF_ProfileID_Type"
"RF_ProfileType" --> "RF_ProfileID_Type" : RF_ProfileID
"RF_ProfileType" --> "TimedZoneType" : TimedZone
"RequestBaseType" --> "RequestID_Type" : RequestID
"ID_Type" <|-- "RequestID_Type"
"RequestStatusBaseType" --> "RequestID_Type" : RequestID
"RequestStatusBaseType" --> "CannotComplyType" : RequestProcessingStateReason
"ResultingActivityType" --> "ActivityID_Type" : ActivityID
"SecurityInformationType" --> "OwnerProducerChoiceType" : OwnerProducer
"SecurityInformationType" --> "SCI_ControlsChoiceType" : SCI_Controls
"SecurityInformationType" --> "AtomicEnergyMarkingsChoiceType" : AtomicEnergyMarkings
"SecurityInformationType" --> "ReleasableToChoiceType" : DisplayOnlyTo
"SecurityInformationType" --> "FGI_SourceOpenChoiceType" : FGI_SourceOpen
"SecurityInformationType" --> "ReleasableToChoiceType" : ReleasableTo
"SecurityInformationType" --> "NonIC_MarkingsChoiceType" : NonIC_Markings
"ID_Type" <|-- "ServiceID_Type"
"ID_Type" <|-- "SubsystemID_Type"
"ID_Type" <|-- "SystemID_Type"
"ZoneType" <|-- "TimedZoneType"
"TimedZoneType" --> "ScheduleType" : Schedule
"ID_Type" <|-- "VersionedID_Type"
"ZoneType" --> "AreaChoiceType" : Shape
@enduml
