@startuml
hide circle
skinparam classAttributeIconSize 0
title A-GRA ASK 5.0a - Family: SAR_*

class "SAR_Activity" <<element>> {
  +type: SAR_ActivityMT
}
class "SAR_Capability" <<element>> {
  +type: SAR_CapabilityMT
}
class "SAR_CapabilityStatus" <<element>> {
  +type: SAR_CapabilityStatusMT
}
class "SAR_Command" <<element>> {
  +type: SAR_CommandMT
}
class "SAR_CommandStatus" <<element>> {
  +type: SAR_CommandStatusMT
}
class "SAR_SettingsCommand" <<element>> {
  +type: SAR_SettingsCommandMT
}
class "SAR_SettingsCommandStatus" <<element>> {
  +type: SAR_SettingsCommandStatusMT
}

class "ActivityBaseType" <<complexType>> {
  +ActivityID: ActivityID_Type
  +CapabilityID: CapabilityID_Type
  +Interactive: boolean
  +ActivityState: ActivityStateEnum
  +Basis: ActivityBasisEnum
  +ActivityRank: ComparableRankingType
  +ActivityReason: CannotComplyType
  +Source: ActivitySourceType
  +EstimatedStartTime: DateTimeType
  +EstimatedCompletionTime: DateTimeType
  +EstimatedPercentComplete: PercentType
}
class "ActivityID_Type" <<complexType>> {
  --
}
class "ActivitySourceType" <<complexType>> {
  --
}
class "AntennaResourceChoiceType" <<complexType>> {
  --
}
class "AreaChoiceType" <<complexType>> {
  --
}
class "AtomicEnergyMarkingsChoiceType" <<complexType>> {
  --
}
class "AvailabilityInfoType" <<complexType>> {
  +Availability: CapabilityAvailabilityEnum
  +AvailabilityReason: CannotComplyType
  +NextAvailableWindow: DateTimeType
}
class "CannotComplyType" <<complexType>> {
  +Reason: CannotComplyEnum
  +Description: VisibleString1024Type
  +AssociatedID: ID_Type
}
class "CapabilityBaseType" <<complexType>> {
  +AvailableMDF: MDF_Type
}
class "CapabilityCommandStatusBaseType" <<complexType>> {
  +Activity: ResultingActivityType
}
class "CapabilityDeclarationBaseType" <<complexType>> {
  +CapabilityID: CapabilityID_Type
  +DomainPairing: EnvironmentPairingEnum
  +ProductOutput: ProductOutputType
  +PackageOperation: PackageOperationEnum
}
class "CapabilityID_Type" <<complexType>> {
  --
}
class "CapabilityPrecedenceType" <<complexType>> {
  +CapabilityID: CapabilityID_Type
  +CapabilityPrecedence: unsignedInt
}
class "CapabilitySettingsCommandBaseType" <<complexType>> {
  +SubsystemID: SubsystemID_Type
  +ActivateMDF: MDF_CommandType
  +CapabilityPrecedence: CapabilityPrecedenceType
  +CapabilityState: CapabilityStateType
  +RepresentationKey: ForeignKeyType
}
class "CapabilitySettingsCommandStatusBaseType" <<complexType>> {
  --
}
class "CapabilityStateType" <<complexType>> {
  +CapabilityID: CapabilityID_Type
  +CapabilityCommandState: CapabilityCommandStateEnum
}
class "CapabilityStatusBaseType" <<complexType>> {
  +MDF_Status: MDF_StatusType
}
class "CapabilityStatusType" <<complexType>> {
  +CapabilityID: CapabilityID_Type
  +AvailabilityInfo: AvailabilityInfoType
  +CapabilityPrecedence: unsignedInt
  +RepresentationKey: ForeignKeyType
}
class "CommandBaseType" <<complexType>> {
  +CommandID: CommandID_Type
  +CommandState: CommandStateEnum
}
class "CommandID_Type" <<complexType>> {
  --
}
class "CommandStatusBaseType" <<complexType>> {
  +CommandID: CommandID_Type
  +CommandProcessingState: CommandProcessingStateEnum
  +CommandProcessingStateReason: CannotComplyType
}
class "CommandableCapabilityDeclarationType" <<complexType>> {
  +AcceptedInterface: CapabilityControlInterfacesEnum
  +CommsRequired: boolean
}
class "ComparableRankingType" <<complexType>> {
  +Priority: unsignedShort
  +PrecedenceWithinPriority: unsignedShort
}
class "ComponentFieldOfRegardType" <<complexType>> {
  +ComponentID: ComponentID_Type
  +FieldOfRegard: FieldOfRegardType
}
class "ComponentID_Type" <<complexType>> {
  --
}
class "ConcurrentCollectionDetailsType" <<complexType>> {
  +ConcurrentActivityID: ActivityID_Type
  +TimeOfConcurrentCollections: TimeWindowType
}
class "DateTimeRangeType" <<complexType>> {
  +Begin: DateTimeType
  +End: DateTimeType
}
class "DependentActivityType" <<complexType>> {
  +TypeOfDependency: TypeOfDependencyEnum
  +DependentActivityID: ActivityID_Type
}
class "ElectronicProtectionOptionsDefaultType" <<complexType>> {
  +CapabilityID: CapabilityID_Type
  +ElectronicProtectionOptions: ElectronicProtectionOptionsEnableType
}
class "ElectronicProtectionOptionsEnableType" <<complexType>> {
  +ElectronicProtectionOptionsKey: ForeignKeyType
  +ElectronicProtectionOptionStatus: EP_CommandedStateEnum
}
class "ElectronicProtectionOptionsEnabledType" <<complexType>> {
  +ElectronicProtectionOptionsKey: ForeignKeyType
  +ElectronicProtectionOptionStatus: EP_StatusEnum
}
class "ElectronicProtectionOptionsSupportedType" <<complexType>> {
  +ElectronicProtectionOptionState: EP_StateEnum
  +Reference: ForeignKeyType
}
class "EmconSettingType" <<complexType>> {
  --
}
class "FGI_SourceOpenChoiceType" <<complexType>> {
  --
}
class "FieldOfRegardType" <<complexType>> {
  +Field: SensorFieldOfRegardType
  +NearRange: SlantRangeConstraintsType
  +FarRange: SlantRangeConstraintsType
  +Mnemonic: VisibleString256Type
  +TypeOfFOR: FieldOfRegardTypeEnum
}
class "FileFormatType" <<complexType>> {
  --
}
class "ForeignKeyType" <<complexType>> {
  +Key: VisibleString256Type
  +SystemName: VisibleString256Type
}
class "FrequencyRangeType" <<complexType>> {
  +Min: FrequencyType
  +Max: FrequencyType
}
class "HeaderType" <<complexType>> {
  +SystemID: SystemID_Type
  +Timestamp: DateTimeType
  +SchemaVersion: UCI_SchemaVersionStringType
  +Mode: MessageModeEnum
  +ServiceID: ServiceID_Type
  +MissionID: MissionID_Type
}
class "ID_Type" <<complexType>> {
  +UUID: UniversallyUniqueIdentifierType
  +DescriptiveLabel: VisibleString256Type
}
class "JPEG_SettingsType" <<complexType>> {
  +CompressionRatio: float
  +PeakSNR: float
  +RateDistortionSlope: float
  +WaveletTransform: JPEG_WaveletTransformType
}
class "JPEG_WaveletTransformType" <<complexType>> {
  +Type: JPEG_WaveletTypeEnum
  +Level: unsignedInt
}
class "MDF_CommandSubCategoryType" <<complexType>> {
  +SubCategoryID: MDF_SubCategoryID_Type
  +FileID: MDF_SubCategoryFileID_Type
}
class "MDF_CommandType" <<complexType>> {
  +MDF_ID: MDF_ID_Type
  +SubCategory: MDF_CommandSubCategoryType
}
class "MDF_FileType" <<complexType>> {
  +FileID: MDF_SubCategoryFileID_Type
  +FileStatus: MDF_StatusEnum
}
class "MDF_ID_Type" <<complexType>> {
  --
}
class "MDF_StatusType" <<complexType>> {
  +CurrentMDF: MDF_CommandType
  +CommandedMDF: MDF_CommandType
  +FailedMDF: MDF_CommandType
}
class "MDF_SubCategoryFileID_Type" <<complexType>> {
  --
}
class "MDF_SubCategoryID_Type" <<complexType>> {
  --
}
class "MDF_SubCategoryType" <<complexType>> {
  +SubCategoryID: MDF_SubCategoryID_Type
  +SubCategoryStatus: MDF_StatusEnum
  +File: MDF_FileType
}
class "MDF_Type" <<complexType>> {
  +MDF_ID: MDF_ID_Type
  +MDF_Status: MDF_StatusEnum
  +SubCategory: MDF_SubCategoryType
}
class "MessageType" <<complexType>> {
  +SecurityInformation: SecurityInformationType
  +MessageHeader: HeaderType
}
class "MetricValueType" <<complexType>> {
  +MetricIdentifier: ForeignKeyType
  +DescriptionOfMetric: VisibleString256Type
  +NegotiableOptions: NegotiableOptionsEnum
  +Weight: UnitIntervalFloatType
  +Value: float
}
class "MissionID_Type" <<complexType>> {
  --
}
class "MultistaticEmitterDataID_Type" <<complexType>> {
  --
}
class "MultistaticModeOptionsEmployedType" <<complexType>> {
  +MultistaticModeStatus: MultistaticModeStatusEnum
  +MultistaticEmitterDataID: MultistaticEmitterDataID_Type
}
class "MultistaticOptionsSupportedType" <<complexType>> {
  +MultistaticEmitterDataRequired: boolean
  +MultistaticOnly: EmptyType
}
class "NITF_PackingPlanPET" <<complexType>> {
  --
}
class "NonIC_MarkingsChoiceType" <<complexType>> {
  --
}
class "OwnerProducerChoiceType" <<complexType>> {
  --
}
class "PerformanceMetricSetType" <<complexType>> {
  +PerformanceConstraintIndex: unsignedInt
  +Merit: int
  +NegotiableOptions: NegotiableOptionsEnum
  +PerformanceMetricSet: MetricValueType
}
class "PeriodPerformanceFeedbackType" <<complexType>> {
  +AccessPeriodIndex: unsignedInt
  +PercentAccessAllocated: PercentType
  +PercentAccessRequested: PercentType
  +PercentAccessAchieved: PercentType
  +UnusableGrantedTime: PercentType
  +PercentInterruption: PercentType
  +LongestUninterruptedTime: DurationType
}
class "Point3D_Type" <<complexType>> {
  +Latitude: AngleHalfType
  +Longitude: AngleType
  +Altitude: AltitudeType
  +AltitudeReference: AltitudeReferenceEnum
  +Timestamp: DateTimeType
}
class "ProductOutputType" <<complexType>> {
  +ProductType: ProductTypeEnum
  +ProcessingType: ProcessingTypeEnum
  +ProductFormat: FileFormatType
}
class "RF_ProfileID_Type" <<complexType>> {
  --
}
class "RF_ProfileType" <<complexType>> {
  +RF_ProfileID: RF_ProfileID_Type
  +TimedZone: TimedZoneType
  +Expires: DateTimeType
}
class "RadarPointingTargetType" <<complexType>> {
  --
}
class "ReleasableToChoiceType" <<complexType>> {
  --
}
class "ResourceStatusSelectedType" <<complexType>> {
  +SystemThreadIndex: unsignedInt
  +SelectedAntenna: SelectAntennaType
  +RF_Mode: RF_TypeEnum
  +ResourceAccessPriority: unsignedInt
  +PeriodPerformanceFeedback: PeriodPerformanceFeedbackType
}
class "ResultingActivityType" <<complexType>> {
  +ActivityID: ActivityID_Type
  +NewActivity: boolean
}
class "SAR_ActivityMDT" <<complexType>> {
  +SubsystemID: SubsystemID_Type
  +Activity: SAR_ActivityType
}
class "SAR_ActivityMT" <<complexType>> {
  +ObjectState: ObjectStateEnum
  +MessageData: SAR_ActivityMDT
}
class "SAR_ActivityStatusDetailType" <<complexType>> {
  +PercentageInFOR: PercentType
  +ActualStartTime: DateTimeType
  +ActualStopTime: DateTimeType
  +PercentCoverage: PercentType
  +EntitiesReported: unsignedInt
  +ProductsProduced: unsignedInt
  +EstimatedERP: DecibelType
  +MinimumCNR: DecibelType
  +AchievableEllipticity: float
  +AchievableResolution: double
  +ConcurrentActivity: ConcurrentCollectionDetailsType
  +PercentOccluded: PercentType
  +TimeToService: DurationType
  +PercentRadarTimeline: PercentType
  +PercentageInFOV: PercentType
  +RelativeDirectionOfTarget: RelativeDirectionEnum
}
class "SAR_ActivityType" <<complexType>> {
  +SubCapability: SAR_SubCapabilityEnum
  +Attempt: unsignedInt
  +RadarPointingTarget: RadarPointingTargetType
  +Metrics: SAR_ActivityStatusDetailType
  +PolicyApplied: boolean
  +AllProductsAndMessagesProduced: boolean
  +PredictedCollections: SAR_PredictedCollectionsType
  +ElectronicProtectionOptionsEmployed: ForeignKeyType
  +MultistaticModeOptionsEmployed: MultistaticModeOptionsEmployedType
}
class "SAR_CapabilityMDT" <<complexType>> {
  +Capability: SAR_CapabilityType
}
class "SAR_CapabilityMT" <<complexType>> {
  +ObjectState: ObjectStateEnum
  +MessageData: SAR_CapabilityMDT
}
class "SAR_CapabilityOptionsType" <<complexType>> {
  +InterruptOtherActivities: boolean
  +CollectionPolicy: boolean
  +ATR: boolean
  +FTI_Supported: boolean
  +ForceTxRxTaper: boolean
  +ConcurrentOperationSupported: boolean
  +MultistaticOptionsSupported: MultistaticOptionsSupportedType
  +ElectronicProtectionOptionsSupported: ElectronicProtectionOptionsSupportedType
  +SupportedResolution: SupportedResolutionType
  +COARPS_SAR_CollectionOption: COARPS_SAR_CollectionOptionsEnum
}
class "SAR_CapabilityStatusMDT" <<complexType>> {
  +CapabilityStatus: SAR_CapabilityStatusType
  +RF_Profile: RF_ProfileType
  +EmissionBalanceState: EmissionBalanceEnum
  +CurrentMessageOutput: SAR_MessageOutputsEnum
  +DefaultPackingPlan: NITF_PackingPlanPET
  +DefaultJPEG_Settings: JPEG_SettingsType
  +ElectronicProtectionOptionsEnabled: ElectronicProtectionOptionsEnabledType
}
class "SAR_CapabilityStatusMT" <<complexType>> {
  +MessageData: SAR_CapabilityStatusMDT
}
class "SAR_CapabilityStatusType" <<complexType>> {
  +SupportedResolutionAvailability: SupportedResolutionAvailabilityType
}
class "SAR_CapabilityType" <<complexType>> {
  +CapabilityType: SAR_CapabilityEnum
  +SubCapabilityType: SAR_SubCapabilityEnum
  +CapabilityOptions: SAR_CapabilityOptionsType
  +Band: FrequencyRangeType
  +NIIRS_Level: NIIRS_Type
  +MessageOutput: SAR_MessageOutputsEnum
  +ComponentFieldOfRegard: ComponentFieldOfRegardType
}
class "SAR_CommandMDT" <<complexType>> {
  +Command: SAR_CommandType
}
class "SAR_CommandMT" <<complexType>> {
  +MessageData: SAR_CommandMDT
}
class "SAR_CommandStatusMDT" <<complexType>> {
  --
}
class "SAR_CommandStatusMT" <<complexType>> {
  +MessageData: SAR_CommandStatusMDT
}
class "SAR_CommandType" <<complexType>> {
  --
}
class "SAR_PredictedActivityDetailType" <<complexType>> {
  +ActivityState: ActivityStateEnum
  +ActivityReason: CannotComplyType
  +EstimatedStartTime: DateTimeType
  +EstimatedStopTime: DateTimeType
  +EstimatedERP: DecibelType
  +EstimatedMinimumCNR: DecibelType
  +EstimatedAchievableEllipticity: float
  +EstimatedAchievableResolution: double
  +EstimatedPercentageInFOR: PercentType
  +EstimatedPercentageOccluded: PercentType
  +ConcurrentExecutionAssumed: boolean
}
class "SAR_PredictedCollectionsType" <<complexType>> {
  +OwnshipLocation: Point3D_Type
  +PredictedCollectionMetrics: SAR_PredictedActivityDetailType
}
class "SAR_SettingsCommandMDT" <<complexType>> {
  +EmissionBalanceState: EmissionBalanceEnum
  +MessageOutput: SAR_MessageOutputsEnum
  +DefaultPackingPlan: NITF_PackingPlanPET
  +DefaultJPEG_Settings: JPEG_SettingsType
  +UnassignAll: boolean
  +DefaultEmcon: EmconSettingType
  +ElectronicProtectionOptionsEnabled: ElectronicProtectionOptionsDefaultType
}
class "SAR_SettingsCommandMT" <<complexType>> {
  +MessageData: SAR_SettingsCommandMDT
}
class "SAR_SettingsCommandStatusMDT" <<complexType>> {
  --
}
class "SAR_SettingsCommandStatusMT" <<complexType>> {
  +MessageData: SAR_SettingsCommandStatusMDT
}
class "SCI_ControlsChoiceType" <<complexType>> {
  --
}
class "ScheduleType" <<complexType>> {
  --
}
class "SecurityInformationType" <<complexType>> {
  +Classification: ClassificationEnum
  +OwnerProducer: OwnerProducerChoiceType
  +Joint: boolean
  +SCI_Controls: SCI_ControlsChoiceType
  +SAR_Identifier: SAR_IdentifierType
  +AtomicEnergyMarkings: AtomicEnergyMarkingsChoiceType
  +DisseminationControls: DisseminationControlsEnum
  +DisplayOnlyTo: ReleasableToChoiceType
  +FGI_SourceOpen: FGI_SourceOpenChoiceType
  +ReleasableTo: ReleasableToChoiceType
  +NonIC_Markings: NonIC_MarkingsChoiceType
  +ClassifiedBy: WhitespaceVisibleString1024Type
  +CompilationReason: WhitespaceVisibleString1024Type
  +DerivativelyClassifiedBy: WhitespaceVisibleString1024Type
  +ClassificationReason: WhitespaceVisibleString4096Type
  +NonUS_Controls: NonUS_ControlsEnum
  +DerivedFrom: WhitespaceVisibleString1024Type
  +DeclassDate: dateTime
  +DeclassEvent: WhitespaceVisibleString1024Type
  +DeclassException: DeclassExceptionEnum
}
class "SelectAntennaType" <<complexType>> {
  +SupportCapabilityID: SupportCapabilityID_Type
  +AntennaResourceChoice: AntennaResourceChoiceType
}
class "SensorFieldOfRegardType" <<complexType>> {
  --
}
class "ServiceID_Type" <<complexType>> {
  +ServiceVersion: VisibleString256Type
}
class "SharedRF_ApertureActivityBaseType" <<complexType>> {
  +DependentActivity: DependentActivityType
  +SharedApertureResourceStatus: ResourceStatusSelectedType
  +ActivityPerformanceFeedback: PerformanceMetricSetType
}
class "SlantRangeConstraintsType" <<complexType>> {
  +Min: DistanceType
  +Max: DistanceType
  +Absolute: boolean
}
class "SubsystemID_Type" <<complexType>> {
  --
}
class "SupportCapabilityID_Type" <<complexType>> {
  --
}
class "SupportedResolutionAvailabilityType" <<complexType>> {
  +SupportedResolutionID: SupportedResolutionID_Type
  +AvailabilityInfo: AvailabilityInfoType
}
class "SupportedResolutionID_Type" <<complexType>> {
  --
}
class "SupportedResolutionType" <<complexType>> {
  +SupportedResolutionID: SupportedResolutionID_Type
  +Resolution: double
  +Band: IEEE_FrequencyBandEnum
}
class "SystemID_Type" <<complexType>> {
  --
}
class "TimeWindowType" <<complexType>> {
  +Range: DateTimeRangeType
  +Duration: DurationType
}
class "TimedZoneType" <<complexType>> {
  +Schedule: ScheduleType
}
class "VersionedID_Type" <<complexType>> {
  +Version: unsignedInt
}
class "ZoneType" <<complexType>> {
  +Shape: AreaChoiceType
  +MinAltitude: AltitudeType
  +MaxAltitude: AltitudeType
  +AltitudeReference: AltitudeReferenceEnum
}

"SAR_Activity" --> "SAR_ActivityMT" : payload
"SAR_Capability" --> "SAR_CapabilityMT" : payload
"SAR_CapabilityStatus" --> "SAR_CapabilityStatusMT" : payload
"SAR_Command" --> "SAR_CommandMT" : payload
"SAR_CommandStatus" --> "SAR_CommandStatusMT" : payload
"SAR_SettingsCommand" --> "SAR_SettingsCommandMT" : payload
"SAR_SettingsCommandStatus" --> "SAR_SettingsCommandStatusMT" : payload
"ActivityBaseType" --> "ActivityID_Type" : ActivityID
"ActivityBaseType" --> "CapabilityID_Type" : CapabilityID
"ActivityBaseType" --> "ComparableRankingType" : ActivityRank
"ActivityBaseType" --> "CannotComplyType" : ActivityReason
"ActivityBaseType" --> "ActivitySourceType" : Source
"ID_Type" <|-- "ActivityID_Type"
"AvailabilityInfoType" --> "CannotComplyType" : AvailabilityReason
"CannotComplyType" --> "ID_Type" : AssociatedID
"CapabilityBaseType" --> "MDF_Type" : AvailableMDF
"CommandStatusBaseType" <|-- "CapabilityCommandStatusBaseType"
"CapabilityCommandStatusBaseType" --> "ResultingActivityType" : Activity
"CapabilityDeclarationBaseType" --> "CapabilityID_Type" : CapabilityID
"CapabilityDeclarationBaseType" --> "ProductOutputType" : ProductOutput
"ID_Type" <|-- "CapabilityID_Type"
"CapabilityPrecedenceType" --> "CapabilityID_Type" : CapabilityID
"CommandBaseType" <|-- "CapabilitySettingsCommandBaseType"
"CapabilitySettingsCommandBaseType" --> "SubsystemID_Type" : SubsystemID
"CapabilitySettingsCommandBaseType" --> "MDF_CommandType" : ActivateMDF
"CapabilitySettingsCommandBaseType" --> "CapabilityPrecedenceType" : CapabilityPrecedence
"CapabilitySettingsCommandBaseType" --> "CapabilityStateType" : CapabilityState
"CapabilitySettingsCommandBaseType" --> "ForeignKeyType" : RepresentationKey
"CommandStatusBaseType" <|-- "CapabilitySettingsCommandStatusBaseType"
"CapabilityStateType" --> "CapabilityID_Type" : CapabilityID
"CapabilityStatusBaseType" --> "MDF_StatusType" : MDF_Status
"CapabilityStatusType" --> "CapabilityID_Type" : CapabilityID
"CapabilityStatusType" --> "AvailabilityInfoType" : AvailabilityInfo
"CapabilityStatusType" --> "ForeignKeyType" : RepresentationKey
"CommandBaseType" --> "CommandID_Type" : CommandID
"ID_Type" <|-- "CommandID_Type"
"CommandStatusBaseType" --> "CommandID_Type" : CommandID
"CommandStatusBaseType" --> "CannotComplyType" : CommandProcessingStateReason
"CapabilityDeclarationBaseType" <|-- "CommandableCapabilityDeclarationType"
"ComponentFieldOfRegardType" --> "ComponentID_Type" : ComponentID
"ComponentFieldOfRegardType" --> "FieldOfRegardType" : FieldOfRegard
"ID_Type" <|-- "ComponentID_Type"
"ConcurrentCollectionDetailsType" --> "ActivityID_Type" : ConcurrentActivityID
"ConcurrentCollectionDetailsType" --> "TimeWindowType" : TimeOfConcurrentCollections
"DependentActivityType" --> "ActivityID_Type" : DependentActivityID
"ElectronicProtectionOptionsDefaultType" --> "CapabilityID_Type" : CapabilityID
"ElectronicProtectionOptionsDefaultType" --> "ElectronicProtectionOptionsEnableType" : ElectronicProtectionOptions
"ElectronicProtectionOptionsEnableType" --> "ForeignKeyType" : ElectronicProtectionOptionsKey
"ElectronicProtectionOptionsEnabledType" --> "ForeignKeyType" : ElectronicProtectionOptionsKey
"ElectronicProtectionOptionsSupportedType" --> "ForeignKeyType" : Reference
"FieldOfRegardType" --> "SensorFieldOfRegardType" : Field
"FieldOfRegardType" --> "SlantRangeConstraintsType" : NearRange
"FieldOfRegardType" --> "SlantRangeConstraintsType" : FarRange
"HeaderType" --> "SystemID_Type" : SystemID
"HeaderType" --> "ServiceID_Type" : ServiceID
"HeaderType" --> "MissionID_Type" : MissionID
"JPEG_SettingsType" --> "JPEG_WaveletTransformType" : WaveletTransform
"MDF_CommandSubCategoryType" --> "MDF_SubCategoryID_Type" : SubCategoryID
"MDF_CommandSubCategoryType" --> "MDF_SubCategoryFileID_Type" : FileID
"MDF_CommandType" --> "MDF_ID_Type" : MDF_ID
"MDF_CommandType" --> "MDF_CommandSubCategoryType" : SubCategory
"MDF_FileType" --> "MDF_SubCategoryFileID_Type" : FileID
"ID_Type" <|-- "MDF_ID_Type"
"MDF_StatusType" --> "MDF_CommandType" : CurrentMDF
"MDF_StatusType" --> "MDF_CommandType" : CommandedMDF
"MDF_StatusType" --> "MDF_CommandType" : FailedMDF
"ID_Type" <|-- "MDF_SubCategoryFileID_Type"
"ID_Type" <|-- "MDF_SubCategoryID_Type"
"MDF_SubCategoryType" --> "MDF_SubCategoryID_Type" : SubCategoryID
"MDF_SubCategoryType" --> "MDF_FileType" : File
"MDF_Type" --> "MDF_ID_Type" : MDF_ID
"MDF_Type" --> "MDF_SubCategoryType" : SubCategory
"MessageType" --> "SecurityInformationType" : SecurityInformation
"MessageType" --> "HeaderType" : MessageHeader
"MetricValueType" --> "ForeignKeyType" : MetricIdentifier
"VersionedID_Type" <|-- "MissionID_Type"
"ID_Type" <|-- "MultistaticEmitterDataID_Type"
"MultistaticModeOptionsEmployedType" --> "MultistaticEmitterDataID_Type" : MultistaticEmitterDataID
"PerformanceMetricSetType" --> "MetricValueType" : PerformanceMetricSet
"ProductOutputType" --> "FileFormatType" : ProductFormat
"ID_Type" <|-- "RF_ProfileID_Type"
"RF_ProfileType" --> "RF_ProfileID_Type" : RF_ProfileID
"RF_ProfileType" --> "TimedZoneType" : TimedZone
"ResourceStatusSelectedType" --> "SelectAntennaType" : SelectedAntenna
"ResourceStatusSelectedType" --> "PeriodPerformanceFeedbackType" : PeriodPerformanceFeedback
"ResultingActivityType" --> "ActivityID_Type" : ActivityID
"SAR_ActivityMDT" --> "SubsystemID_Type" : SubsystemID
"SAR_ActivityMDT" --> "SAR_ActivityType" : Activity
"MessageType" <|-- "SAR_ActivityMT"
"SAR_ActivityMT" --> "SAR_ActivityMDT" : MessageData
"SAR_ActivityStatusDetailType" --> "ConcurrentCollectionDetailsType" : ConcurrentActivity
"SharedRF_ApertureActivityBaseType" <|-- "SAR_ActivityType"
"SAR_ActivityType" --> "RadarPointingTargetType" : RadarPointingTarget
"SAR_ActivityType" --> "SAR_ActivityStatusDetailType" : Metrics
"SAR_ActivityType" --> "SAR_PredictedCollectionsType" : PredictedCollections
"SAR_ActivityType" --> "ForeignKeyType" : ElectronicProtectionOptionsEmployed
"SAR_ActivityType" --> "MultistaticModeOptionsEmployedType" : MultistaticModeOptionsEmployed
"CapabilityBaseType" <|-- "SAR_CapabilityMDT"
"SAR_CapabilityMDT" --> "SAR_CapabilityType" : Capability
"MessageType" <|-- "SAR_CapabilityMT"
"SAR_CapabilityMT" --> "SAR_CapabilityMDT" : MessageData
"SAR_CapabilityOptionsType" --> "MultistaticOptionsSupportedType" : MultistaticOptionsSupported
"SAR_CapabilityOptionsType" --> "ElectronicProtectionOptionsSupportedType" : ElectronicProtectionOptionsSupported
"SAR_CapabilityOptionsType" --> "SupportedResolutionType" : SupportedResolution
"CapabilityStatusBaseType" <|-- "SAR_CapabilityStatusMDT"
"SAR_CapabilityStatusMDT" --> "SAR_CapabilityStatusType" : CapabilityStatus
"SAR_CapabilityStatusMDT" --> "RF_ProfileType" : RF_Profile
"SAR_CapabilityStatusMDT" --> "NITF_PackingPlanPET" : DefaultPackingPlan
"SAR_CapabilityStatusMDT" --> "JPEG_SettingsType" : DefaultJPEG_Settings
"SAR_CapabilityStatusMDT" --> "ElectronicProtectionOptionsEnabledType" : ElectronicProtectionOptionsEnabled
"MessageType" <|-- "SAR_CapabilityStatusMT"
"SAR_CapabilityStatusMT" --> "SAR_CapabilityStatusMDT" : MessageData
"CapabilityStatusType" <|-- "SAR_CapabilityStatusType"
"SAR_CapabilityStatusType" --> "SupportedResolutionAvailabilityType" : SupportedResolutionAvailability
"CommandableCapabilityDeclarationType" <|-- "SAR_CapabilityType"
"SAR_CapabilityType" --> "SAR_CapabilityOptionsType" : CapabilityOptions
"SAR_CapabilityType" --> "FrequencyRangeType" : Band
"SAR_CapabilityType" --> "ComponentFieldOfRegardType" : ComponentFieldOfRegard
"SAR_CommandMDT" --> "SAR_CommandType" : Command
"MessageType" <|-- "SAR_CommandMT"
"SAR_CommandMT" --> "SAR_CommandMDT" : MessageData
"CapabilityCommandStatusBaseType" <|-- "SAR_CommandStatusMDT"
"MessageType" <|-- "SAR_CommandStatusMT"
"SAR_CommandStatusMT" --> "SAR_CommandStatusMDT" : MessageData
"SAR_PredictedActivityDetailType" --> "CannotComplyType" : ActivityReason
"SAR_PredictedCollectionsType" --> "Point3D_Type" : OwnshipLocation
"SAR_PredictedCollectionsType" --> "SAR_PredictedActivityDetailType" : PredictedCollectionMetrics
"CapabilitySettingsCommandBaseType" <|-- "SAR_SettingsCommandMDT"
"SAR_SettingsCommandMDT" --> "NITF_PackingPlanPET" : DefaultPackingPlan
"SAR_SettingsCommandMDT" --> "JPEG_SettingsType" : DefaultJPEG_Settings
"SAR_SettingsCommandMDT" --> "EmconSettingType" : DefaultEmcon
"SAR_SettingsCommandMDT" --> "ElectronicProtectionOptionsDefaultType" : ElectronicProtectionOptionsEnabled
"MessageType" <|-- "SAR_SettingsCommandMT"
"SAR_SettingsCommandMT" --> "SAR_SettingsCommandMDT" : MessageData
"CapabilitySettingsCommandStatusBaseType" <|-- "SAR_SettingsCommandStatusMDT"
"MessageType" <|-- "SAR_SettingsCommandStatusMT"
"SAR_SettingsCommandStatusMT" --> "SAR_SettingsCommandStatusMDT" : MessageData
"SecurityInformationType" --> "OwnerProducerChoiceType" : OwnerProducer
"SecurityInformationType" --> "SCI_ControlsChoiceType" : SCI_Controls
"SecurityInformationType" --> "AtomicEnergyMarkingsChoiceType" : AtomicEnergyMarkings
"SecurityInformationType" --> "ReleasableToChoiceType" : DisplayOnlyTo
"SecurityInformationType" --> "FGI_SourceOpenChoiceType" : FGI_SourceOpen
"SecurityInformationType" --> "ReleasableToChoiceType" : ReleasableTo
"SecurityInformationType" --> "NonIC_MarkingsChoiceType" : NonIC_Markings
"SelectAntennaType" --> "SupportCapabilityID_Type" : SupportCapabilityID
"SelectAntennaType" --> "AntennaResourceChoiceType" : AntennaResourceChoice
"ID_Type" <|-- "ServiceID_Type"
"ActivityBaseType" <|-- "SharedRF_ApertureActivityBaseType"
"SharedRF_ApertureActivityBaseType" --> "DependentActivityType" : DependentActivity
"SharedRF_ApertureActivityBaseType" --> "ResourceStatusSelectedType" : SharedApertureResourceStatus
"SharedRF_ApertureActivityBaseType" --> "PerformanceMetricSetType" : ActivityPerformanceFeedback
"ID_Type" <|-- "SubsystemID_Type"
"ID_Type" <|-- "SupportCapabilityID_Type"
"SupportedResolutionAvailabilityType" --> "SupportedResolutionID_Type" : SupportedResolutionID
"SupportedResolutionAvailabilityType" --> "AvailabilityInfoType" : AvailabilityInfo
"ID_Type" <|-- "SupportedResolutionID_Type"
"SupportedResolutionType" --> "SupportedResolutionID_Type" : SupportedResolutionID
"ID_Type" <|-- "SystemID_Type"
"TimeWindowType" --> "DateTimeRangeType" : Range
"ZoneType" <|-- "TimedZoneType"
"TimedZoneType" --> "ScheduleType" : Schedule
"ID_Type" <|-- "VersionedID_Type"
"ZoneType" --> "AreaChoiceType" : Shape
@enduml
